<?xml version="1.0" encoding="UTF-8"?><svg xmlns="http://www.w3.org/2000/svg" xmlns:xlink="http://www.w3.org/1999/xlink" viewBox="0 0 256 256"><defs><style>.cls-1{fill:url(#linear-gradient);}.cls-2{clip-path:url(#clippath);}.cls-3{clip-path:url(#clippath-1);}.cls-4{clip-path:url(#clippath-3);}.cls-5{clip-path:url(#clippath-2);}.cls-6{fill:url(#linear-gradient-3);}.cls-7{fill:url(#linear-gradient-4);}.cls-8{fill:url(#linear-gradient-2);}.cls-9{fill:url(#linear-gradient-6);}.cls-10{fill:url(#linear-gradient-5);}</style><linearGradient id="linear-gradient" x1="-1222.84" y1="-287" x2="327.16" y2="-287" gradientUnits="userSpaceOnUse"><stop offset="0" stop-color="#fff"/><stop offset="1" stop-color="#000"/></linearGradient><clipPath id="clippath"><rect class="cls-1" x="-1222.84" y="-540" width="1550" height="506"/></clipPath><linearGradient id="linear-gradient-2" x1="-875.84" y1="-98.5" x2="889.16" y2="-98.5" xlink:href="#linear-gradient"/><linearGradient id="linear-gradient-3" x1="-875.84" y1="-98.5" x2="889.16" y2="-98.5" xlink:href="#linear-gradient"/><clipPath id="clippath-1"><rect class="cls-6" x="-875.84" y="-252" width="1765" height="307"/></clipPath><linearGradient id="linear-gradient-4" x1="-1217.84" y1="124.5" x2="-441.84" y2="124.5" gradientUnits="userSpaceOnUse"><stop offset="0" stop-color="#fff"/><stop offset="1" stop-color="#000"/></linearGradient><clipPath id="clippath-2"><rect class="cls-7" x="-1217.84" y="-2" width="776" height="253"/></clipPath><linearGradient id="linear-gradient-5" x1="-1044.12" y1="218.75" x2="-160.48" y2="218.75" xlink:href="#linear-gradient-4"/><linearGradient id="linear-gradient-6" x1="-1044.12" y1="218.75" x2="-160.48" y2="218.75" xlink:href="#linear-gradient-4"/><clipPath id="clippath-3"><rect class="cls-9" x="-1044.12" y="142" width="883.64" height="153.5"/></clipPath><image id="image" width="4406" height="1530" xlink:href="../../../../Screenshots/Screen Shot 2022-10-28 at 6.08.44 AM.png"/><image id="image-2" width="4960" height="1562" xlink:href="../../../../Screenshots/Screen Shot 2022-10-28 at 6.08.28 AM.png"/></defs><g id="Icons"><g><path d="M162.37,90.14h-61.12c-3.29,0-5.96,2.66-5.96,5.94s2.67,5.94,5.96,5.94h61.12c3.29,0,5.96-2.66,5.96-5.94s-2.67-5.94-5.96-5.94Z"/><path d="M162.37,113.9h-61.12c-3.29,0-5.96,2.66-5.96,5.94s2.67,5.94,5.96,5.94h61.12c3.29,0,5.96-2.66,5.96-5.94s-2.67-5.94-5.96-5.94Z"/><path d="M162.37,137.66h-61.12c-3.29,0-5.96,2.66-5.96,5.94s2.67,5.94,5.96,5.94h61.12c3.29,0,5.96-2.66,5.96-5.94s-2.67-5.94-5.96-5.94Z"/><path d="M9.66,109.86c2.95,0,5.34-2.39,5.34-5.34V34.98h26.68c2.95,0,5.34-2.39,5.34-5.34V10.97h56.03V29.65c0,2.95,2.39,5.34,5.34,5.34h41.36c2.95,0,5.34-2.39,5.34-5.34V10.97h56.03V29.65c0,2.95,2.39,5.34,5.34,5.34h25.68V104.52c0,2.95,2.39,5.34,5.34,5.34s5.34-2.39,5.34-5.34V29.65c0-2.95-2.39-5.34-5.34-5.34h-25.68V5.63c0-2.95-2.39-5.34-5.34-5.34h-66.7c-2.95,0-5.34,2.39-5.34,5.34V24.31h-30.68V5.63c0-2.95-2.39-5.34-5.34-5.34H41.67c-2.95,0-5.34,2.39-5.34,5.34V24.31H9.66c-2.95,0-5.34,2.39-5.34,5.34V104.52c0,2.95,2.39,5.34,5.34,5.34Z"/><path d="M236.03,221.66c-7.66,0-14.16,5.05-16.34,12h-34.09c14.3-5.93,26.59-14.48,36.8-25.62,17.97-19.62,25.25-42.72,28.2-58.63,1.53-8.26,1.68-13.64,1.69-13.87,.07-2.76-2.11-5.05-4.87-5.13-2.78-.07-5.06,2.1-5.14,4.86,0,.05-.15,4.9-1.52,12.31-2.61,14.1-8.86,34.32-24,51.74l-18.83-20.89c-.74-.82-1.99-.88-2.81-.15l-2.77,2.48-10.9-12.09c12.05-12.76,19.44-29.94,19.44-48.84,0-39.37-32.04-71.28-71.56-71.28S57.75,80.47,57.75,119.84c0,33.22,22.81,61.12,53.67,69.04l.18,.05c3.8,.96,7.72,1.62,11.74,1.95,1.97,.16,3.95,.24,5.96,.24s4-.08,5.96-.24c4.08-.34,8.07-1.01,11.93-2,9.58-2.46,18.38-6.84,25.96-12.7l10.85,12.03-2.57,2.3c-.82,.74-.89,2-.15,2.82l18.65,20.69c-20.67,13.78-43.67,17.56-43.67,17.56-3.85,.65-7.8,1.15-11.88,1.5v-5c0-3.5-2.85-6.35-6.35-6.35h-18.29c-3.5,0-6.35,2.85-6.35,6.35v4.88c-4.07-.36-29.12,1.86-60.03-20.8-10.11-7.46-18.47-16.83-24.91-27.96-13.93-24.08-14.15-48.42-14.15-48.8,0-2.76-2.23-5-4.99-5.01h-.01c-2.76,0-5,2.23-5,4.99,0,1.09,.12,27,15.27,53.44,8.95,15.62,21.29,28.14,36.68,37.23,4.88,2.88,10.07,5.41,15.55,7.59H38.11c-.1,0-.19,0-.28,.01-2.11-7.08-8.67-12.26-16.42-12.26-9.45,0-17.13,7.68-17.13,17.13s7.68,17.13,17.13,17.13c7.67,0,14.18-5.07,16.36-12.03,.12,0,.23,.02,.35,.02H113.39v2.71c0,3.5,2.85,6.35,6.35,6.35h18.29c3.5,0,6.35-2.85,6.35-6.35v-2.71h75.22c2.1,7.08,8.67,12.26,16.42,12.26,9.45,0,17.13-7.68,17.13-17.13s-7.68-17.13-17.13-17.13Zm-106.72-42.42c-32.93,0-59.63-26.6-59.63-59.4s26.7-59.4,59.63-59.4,59.63,26.6,59.63,59.4-26.7,59.4-59.63,59.4Z"/></g></g><g id="styles_library"><g><rect class="cls-1" x="-1222.84" y="-540" width="1550" height="506"/><g class="cls-2"><use transform="translate(-1220.84 -603) scale(.53)" xlink:href="#image-2"/><use transform="translate(-911.84 -544) scale(.5)" xlink:href="#image"/><g><rect class="cls-8" x="-875.84" y="-252" width="1765" height="307"/><g class="cls-3"><use transform="translate(-911.84 -651) scale(.5)" xlink:href="#image"/></g></g></g></g><g><rect class="cls-7" x="-1217.84" y="-2" width="776" height="253"/><g class="cls-5"><use transform="translate(-1216.84 -33.5) scale(.27)" xlink:href="#image-2"/><use transform="translate(-1062.14 -4) scale(.25)" xlink:href="#image"/><g><rect class="cls-10" x="-1044.12" y="142" width="883.64" height="153.5"/><g class="cls-4"><use transform="translate(-1062.14 -57.5) scale(.25)" xlink:href="#image"/></g></g></g></g></g></svg>